<svg id="visual" viewBox="0 0 900 600" width="900" height="600" xmlns="http://www.w3.org/2000/svg" xmlns:xlink="http://www.w3.org/1999/xlink" version="1.1"><path d="M0 157L16.7 163C33.3 169 66.7 181 100 177C133.3 173 166.7 153 200 146C233.3 139 266.7 145 300 155C333.3 165 366.7 179 400 174C433.3 169 466.7 145 500 141C533.3 137 566.7 153 600 154C633.3 155 666.7 141 700 147C733.3 153 766.7 179 800 180C833.3 181 866.7 157 883.3 145L900 133L900 0L883.3 0C866.7 0 833.3 0 800 0C766.7 0 733.3 0 700 0C666.7 0 633.3 0 600 0C566.7 0 533.3 0 500 0C466.7 0 433.3 0 400 0C366.7 0 333.3 0 300 0C266.7 0 233.3 0 200 0C166.7 0 133.3 0 100 0C66.7 0 33.3 0 16.7 0L0 0Z" fill="#6198ff"></path><path d="M0 205L16.7 209C33.3 213 66.7 221 100 223C133.3 225 166.7 221 200 224C233.3 227 266.7 237 300 239C333.3 241 366.7 235 400 229C433.3 223 466.7 217 500 219C533.3 221 566.7 231 600 230C633.3 229 666.7 217 700 219C733.3 221 766.7 237 800 235C833.3 233 866.7 213 883.3 203L900 193L900 131L883.3 143C866.7 155 833.3 179 800 178C766.7 177 733.3 151 700 145C666.7 139 633.3 153 600 152C566.7 151 533.3 135 500 139C466.7 143 433.3 167 400 172C366.7 177 333.3 163 300 153C266.7 143 233.3 137 200 144C166.7 151 133.3 171 100 175C66.7 179 33.3 167 16.7 161L0 155Z" fill="#4c8aff"></path><path d="M0 325L16.7 331C33.3 337 66.7 349 100 357C133.3 365 166.7 369 200 361C233.3 353 266.7 333 300 337C333.3 341 366.7 369 400 376C433.3 383 466.7 369 500 354C533.3 339 566.7 323 600 321C633.3 319 666.7 331 700 340C733.3 349 766.7 355 800 346C833.3 337 866.7 313 883.3 301L900 289L900 191L883.3 201C866.7 211 833.3 231 800 233C766.7 235 733.3 219 700 217C666.7 215 633.3 227 600 228C566.7 229 533.3 219 500 217C466.7 215 433.3 221 400 227C366.7 233 333.3 239 300 237C266.7 235 233.3 225 200 222C166.7 219 133.3 223 100 221C66.7 219 33.3 211 16.7 207L0 203Z" fill="#367cff"></path><path d="M0 403L16.7 410C33.3 417 66.7 431 100 434C133.3 437 166.7 429 200 411C233.3 393 266.7 365 300 369C333.3 373 366.7 409 400 425C433.3 441 466.7 437 500 425C533.3 413 566.7 393 600 387C633.3 381 666.7 389 700 394C733.3 399 766.7 401 800 396C833.3 391 866.7 379 883.3 373L900 367L900 287L883.3 299C866.7 311 833.3 335 800 344C766.7 353 733.3 347 700 338C666.7 329 633.3 317 600 319C566.7 321 533.3 337 500 352C466.7 367 433.3 381 400 374C366.7 367 333.3 339 300 335C266.7 331 233.3 351 200 359C166.7 367 133.3 363 100 355C66.7 347 33.3 335 16.7 329L0 323Z" fill="#196eff"></path><path d="M0 463L16.7 470C33.3 477 66.7 491 100 491C133.3 491 166.7 477 200 458C233.3 439 266.7 415 300 416C333.3 417 366.7 443 400 457C433.3 471 466.7 473 500 465C533.3 457 566.7 439 600 432C633.3 425 666.7 429 700 436C733.3 443 766.7 453 800 449C833.3 445 866.7 427 883.3 418L900 409L900 365L883.3 371C866.7 377 833.3 389 800 394C766.7 399 733.3 397 700 392C666.7 387 633.3 379 600 385C566.7 391 533.3 411 500 423C466.7 435 433.3 439 400 423C366.7 407 333.3 371 300 367C266.7 363 233.3 391 200 409C166.7 427 133.3 435 100 432C66.7 429 33.3 415 16.7 408L0 401Z" fill="#0062f5"></path><path d="M0 493L16.7 498C33.3 503 66.7 513 100 511C133.3 509 166.7 495 200 480C233.3 465 266.7 449 300 450C333.3 451 366.7 469 400 483C433.3 497 466.7 507 500 505C533.3 503 566.7 489 600 483C633.3 477 666.7 479 700 481C733.3 483 766.7 485 800 481C833.3 477 866.7 467 883.3 462L900 457L900 407L883.3 416C866.7 425 833.3 443 800 447C766.7 451 733.3 441 700 434C666.7 427 633.3 423 600 430C566.7 437 533.3 455 500 463C466.7 471 433.3 469 400 455C366.7 441 333.3 415 300 414C266.7 413 233.3 437 200 456C166.7 475 133.3 489 100 489C66.7 489 33.3 475 16.7 468L0 461Z" fill="#005be1"></path><path d="M0 547L16.7 549C33.3 551 66.7 555 100 556C133.3 557 166.7 555 200 542C233.3 529 266.7 505 300 505C333.3 505 366.7 529 400 543C433.3 557 466.7 561 500 552C533.3 543 566.7 521 600 516C633.3 511 666.7 523 700 530C733.3 537 766.7 539 800 535C833.3 531 866.7 521 883.3 516L900 511L900 455L883.3 460C866.7 465 833.3 475 800 479C766.7 483 733.3 481 700 479C666.7 477 633.3 475 600 481C566.7 487 533.3 501 500 503C466.7 505 433.3 495 400 481C366.7 467 333.3 449 300 448C266.7 447 233.3 463 200 478C166.7 493 133.3 507 100 509C66.7 511 33.3 501 16.7 496L0 491Z" fill="#0053ce"></path><path d="M0 601L16.7 601C33.3 601 66.7 601 100 601C133.3 601 166.7 601 200 601C233.3 601 266.7 601 300 601C333.3 601 366.7 601 400 601C433.3 601 466.7 601 500 601C533.3 601 566.7 601 600 601C633.3 601 666.7 601 700 601C733.3 601 766.7 601 800 601C833.3 601 866.7 601 883.3 601L900 601L900 509L883.3 514C866.7 519 833.3 529 800 533C766.7 537 733.3 535 700 528C666.7 521 633.3 509 600 514C566.7 519 533.3 541 500 550C466.7 559 433.3 555 400 541C366.7 527 333.3 503 300 503C266.7 503 233.3 527 200 540C166.7 553 133.3 555 100 554C66.7 553 33.3 549 16.7 547L0 545Z" fill="#004cbb"></path></svg>